<?xml version="1.0" encoding="utf-8"?>
<!-- Generator: Adobe Illustrator 19.0.0, SVG Export Plug-In . SVG Version: 6.00 Build 0)  -->
<svg version="1.1" id="Layer_1" xmlns="http://www.w3.org/2000/svg" xmlns:xlink="http://www.w3.org/1999/xlink" x="0px" y="0px"
	 viewBox="0 0 20 20" enable-background="new 0 0 20 20" xml:space="preserve">
<rect id="XMLID_2_" x="0" fill="#FFF200" width="20" height="20"/>
<g id="XMLID_1_">
	<path id="XMLID_4_" d="M4.6,7h1.1v3.7c0,1.6-0.8,1.8-1.5,1.8c-0.2,0-0.4,0-0.5-0.1l0.1-0.9c0.1,0,0.2,0,0.3,0
		c0.3,0,0.6-0.1,0.6-0.8V7z"/>
	<path id="XMLID_6_" d="M6.4,11.3c0.2,0.1,0.6,0.2,0.9,0.2c0.5,0,0.7-0.3,0.7-0.6c0-0.4-0.2-0.6-0.7-0.9c-0.7-0.4-1-1-1-1.5
		c0-0.9,0.6-1.6,1.7-1.6c0.4,0,0.7,0.1,0.8,0.2L8.7,8C8.6,7.9,8.4,7.8,8,7.8c-0.4,0-0.7,0.3-0.7,0.6c0,0.3,0.2,0.5,0.7,0.8
		c0.7,0.4,1,1,1,1.5c0,1-0.7,1.6-1.8,1.6c-0.4,0-0.9-0.1-1-0.2L6.4,11.3z"/>
	<path id="XMLID_8_" d="M9.6,11.7c0-0.4,0.3-0.7,0.6-0.7c0.3,0,0.6,0.3,0.6,0.7c0,0.4-0.2,0.7-0.6,0.7C9.9,12.4,9.6,12.1,9.6,11.7z"
		/>
	<path id="XMLID_10_" d="M11.5,6.8h1v5.5h-1V6.8z"/>
	<path id="XMLID_12_" d="M15,12.3L15,12h0c-0.2,0.3-0.5,0.4-0.9,0.4c-0.6,0-1-0.5-1-1.2c0-1,0.9-1.4,1.8-1.5V9.7
		c0-0.3-0.2-0.5-0.6-0.5c-0.3,0-0.6,0.1-0.8,0.2l-0.2-0.7c0.2-0.1,0.7-0.3,1.2-0.3c1.2,0,1.4,0.8,1.4,1.6v1.5c0,0.3,0,0.6,0.1,0.9
		H15z M14.9,10.4c-0.4,0-0.8,0.1-0.8,0.7c0,0.4,0.2,0.5,0.4,0.5c0.2,0,0.4-0.1,0.4-0.3c0-0.1,0-0.1,0-0.2V10.4z"/>
</g>
</svg>
